<!-- SVGS exported from a Figma project. All designs are mine, asides from the settings symbol which is remixed from a settings icon licensed under the CC BY 4.0 Attribution
Changes were made to the SVG.
Link to the author https://www.figma.com/community/file/909194581541937052
Link to a copy of the license https://creativecommons.org/licenses/by/4.0/ -->
<svg xmlns="http://www.w3.org/2000/svg" version="1.1" width="100" height="100">
    <defs>
        <symbol viewBox="-100 0 400 300" id="adventure-symbol">
            <g>
                <rect width="9" height="26" rx="3" transform="matrix(-1 0 0 1 80 234)" fill="#5B3A1B"/>
                <rect width="13" height="34" rx="3" transform="matrix(-1 0 0 1 187 216)" fill="#584330"/>
                <path d="M71.6443 212.964C72.725 209.05 78.275 209.05 79.3557 212.964L88.3909 245.685C89.0943 248.233 87.178 250.75 84.5352 250.75H66.4648C63.822 250.75 61.9057 248.233 62.6091 245.685L71.6443 212.964Z" fill="#2C7237"/>
                <path d="M176.736 177.454C178.006 173.928 182.994 173.928 184.264 177.454L201.522 225.395C202.46 228.002 200.529 230.75 197.758 230.75H163.242C160.471 230.75 158.54 228.002 159.478 225.395L176.736 177.454Z" fill="#12481B"/>
                <rect width="9" height="26" rx="3" transform="matrix(-1 0 0 1 92 190)" fill="#5B3A1B"/>
                <path d="M83.6443 168.964C84.725 165.05 90.275 165.05 91.3557 168.964L100.391 201.685C101.094 204.233 99.178 206.75 96.5352 206.75H78.4648C75.822 206.75 73.9057 204.233 74.6091 201.685L83.6443 168.964Z" fill="#2C7237"/>
                <rect width="9" height="26" rx="3" transform="matrix(-1 0 0 1 21 218)" fill="#5B3A1B"/>
                <path d="M12.6443 196.964C13.725 193.05 19.275 193.05 20.3557 196.964L29.3909 229.685C30.0943 232.233 28.178 234.75 25.5352 234.75H7.46476C4.82202 234.75 2.90565 232.233 3.60905 229.685L12.6443 196.964Z" fill="#2C7237"/>
                <rect x="99" y="102" width="39" height="169" rx="8" fill="#6F4926"/>
                <rect x="33" y="168" width="22" height="100" rx="6" fill="#89592D"/>
                <path d="M105.73 44.068C110.211 30.2295 129.789 30.2295 134.27 44.068L179.464 183.629C182.602 193.318 175.378 203.25 165.194 203.25H74.8064C64.6221 203.25 57.3984 193.318 60.5359 183.629L105.73 44.068Z" fill="#5B9A59"/>
                <path d="M36.3354 152.629C38.6114 145.019 49.3886 145.019 51.6646 152.629L72.0989 220.958C73.6336 226.089 69.7904 231.25 64.4344 231.25H23.5656C18.2096 231.25 14.3664 226.089 15.9011 220.958L36.3354 152.629Z" fill="#7AC078"/>
            </g>
        </symbol>
        <symbol viewBox="0 -50 350 200" id="customisation-symbol">
            <g>
                <path d="M80.2883 154.768H155.288" stroke="#545454" stroke-width="8" stroke-miterlimit="2.3662" stroke-linecap="round"/>
                <path d="M198.288 154.768H267.288" stroke="#545454" stroke-width="8" stroke-miterlimit="2.3662" stroke-linecap="round"/>
                <path d="M181.788 154.768C181.788 161.12 176.64 166.268 170.288 166.268C163.937 166.268 158.788 161.12 158.788 154.768C158.788 148.417 163.937 143.268 170.288 143.268C176.64 143.268 181.788 148.417 181.788 154.768Z" fill="white" stroke="#545454" stroke-width="7"/>
                <path d="M108.288 73.7683H136.288" stroke="#545454" stroke-width="8" stroke-miterlimit="2.3662" stroke-linecap="round"/>
                <path d="M173.288 73.7683L267.288 73.7683" stroke="#545454" stroke-width="8" stroke-miterlimit="2.3662" stroke-linecap="round"/>
                <path d="M156.788 73.7683C156.788 80.1196 151.64 85.2683 145.288 85.2683C138.937 85.2683 133.788 80.1196 133.788 73.7683C133.788 67.4171 138.937 62.2683 145.288 62.2683C151.64 62.2683 156.788 67.4171 156.788 73.7683Z" fill="white" stroke="#545454" stroke-width="7"/>
                <path d="M80.2883 113.768H210.288" stroke="#545454" stroke-width="8" stroke-miterlimit="2.3662" stroke-linecap="round"/>
                <path d="M250.288 113.768H267.288" stroke="#545454" stroke-width="8" stroke-miterlimit="2.3662" stroke-linecap="round"/>
                <path d="M231.288 113.193C231.288 119.93 226.032 125.193 219.788 125.193C213.544 125.193 208.288 119.93 208.288 113.193C208.288 106.457 213.544 101.193 219.788 101.193C226.032 101.193 231.288 106.457 231.288 113.193Z" fill="white" stroke="#545454" stroke-width="7"/>
                <path d="M92.6198 62.3356L101.794 89.7817L73.1715 85.5132L92.6198 62.3356Z" fill="white" stroke="#545454" stroke-width="7"/>
                <mask id="path-11-inside-1_101_34">
                <rect x="97.5486" y="60.6156" width="39.3751" height="94.3011" rx="4" transform="rotate(130 97.5486 60.6156)"/>
                </mask>
                <rect fill="white" x="97.5486" y="60.6156" width="39.3751" height="94.3011" rx="4" transform="rotate(130 97.5486 60.6156)" stroke="#545454" stroke-width="14" mask="url(#path-11-inside-1_101_34)"/>
                <line x1="45.2876" y1="16.7634" x2="21.7856" y2="44.772" stroke="#545454" stroke-width="7"/>
            </g>
        </symbol>
        <symbol viewBox="0 -75 200 300" id="analysis-symbol">
            <g>
                <path d="M196 60C196 88.1665 173.167 111 145 111C116.833 111 94 88.1665 94 60C94 31.8335 116.833 9 145 9C173.167 9 196 31.8335 196 60Z" fill="#B8D9FF" stroke="#545454" stroke-width="18"/>
                <path d="M4.88199 164.495C-0.36756 168.978 -0.988605 176.868 3.49485 182.118C7.9783 187.368 15.8685 187.989 21.118 183.505L4.88199 164.495ZM21.118 183.505L112.446 105.505L96.21 86.4948L4.88199 164.495L21.118 183.505Z" fill="#545454"/>
                <path d="M162.09 40.8825C162.568 39.5652 164.432 39.5652 164.91 40.8825L165.274 41.8854C165.489 42.4785 166.053 42.8734 166.684 42.8734L167.475 42.8734C168.969 42.8734 169.545 44.8172 168.293 45.631L167.95 45.8538C167.365 46.2341 167.12 46.9676 167.358 47.6234L167.554 48.1647C168.046 49.5179 166.534 50.719 165.327 49.9344L164.318 49.2782C163.82 48.955 163.18 48.955 162.682 49.2782L161.673 49.9344C160.466 50.719 158.954 49.5179 159.446 48.1647L159.642 47.6234C159.88 46.9676 159.635 46.2341 159.05 45.8538L158.707 45.631C157.455 44.8172 158.031 42.8734 159.525 42.8734L160.316 42.8734C160.947 42.8734 161.511 42.4785 161.726 41.8854L162.09 40.8825Z" fill="white"/>
                <path d="M140.169 24.3001C140.994 22.172 144.006 22.172 144.831 24.3001L146.035 27.4039C146.408 28.366 147.334 29 148.365 29H151.18C153.707 29 154.638 32.3214 152.479 33.6355L151.008 34.5311C149.974 35.1608 149.539 36.4414 149.977 37.5705L150.709 39.4578C151.573 41.6854 149.119 43.7395 147.078 42.4972L143.8 40.5015C143.001 40.0155 141.999 40.0155 141.2 40.5015L137.922 42.4972C135.881 43.7395 133.427 41.6854 134.291 39.4578L135.023 37.5705C135.461 36.4414 135.026 35.1608 133.992 34.5311L132.521 33.6355C130.362 32.3214 131.293 29 133.82 29H136.635C137.666 29 138.592 28.366 138.965 27.4039L140.169 24.3001Z" fill="white"/>
                <path d="M154.121 52.1645C154.759 50.4098 157.241 50.4098 157.879 52.1645L158.664 54.3212C158.952 55.1114 159.703 55.6373 160.544 55.6373H162.557C164.549 55.6373 165.316 58.2312 163.645 59.3152L162.421 60.1092C161.64 60.6162 161.312 61.5957 161.63 62.4711L162.187 64.0009C162.843 65.8043 160.829 67.4071 159.219 66.3627L157.088 64.9806C156.426 64.5512 155.574 64.5512 154.912 64.9806L152.781 66.3627C151.171 67.4071 149.157 65.8043 149.813 64.0009L150.37 62.4711C150.688 61.5957 150.36 60.6162 149.579 60.1092L148.355 59.3152C146.684 58.2312 147.451 55.6373 149.443 55.6373H151.456C152.297 55.6373 153.048 55.1114 153.336 54.3212L154.121 52.1645Z" fill="white"/>
            </g>
        </symbol>
        <symbol viewBox="0 -75 175 325" id="settings-symbol" fill="none">
             <g>
             <g filter="url(#filter0_i_102_203)">
            <path fill-rule="evenodd" clip-rule="evenodd" d="M174.236 144.005C173.702 141.056 174.063 138.015 175.273 135.273C176.425 132.584 178.339 130.291 180.778 128.676C183.217 127.06 186.075 126.193 189 126.182H189.818C194.64 126.182 199.265 124.266 202.675 120.856C206.084 117.447 208 112.822 208 108C208 103.178 206.084 98.5533 202.675 95.1435C199.265 91.7338 194.64 89.8182 189.818 89.8182H188.273C185.347 89.8065 182.489 88.9397 180.05 87.3245C177.611 85.7092 175.698 83.4161 174.545 80.7273V80C173.335 77.258 172.974 74.2164 173.509 71.2674C174.044 68.3183 175.45 65.5971 177.545 63.4545L178.091 62.9091C179.781 61.2205 181.122 59.2152 182.037 57.008C182.952 54.8008 183.423 52.4348 183.423 50.0455C183.423 47.6561 182.952 45.2901 182.037 43.0829C181.122 40.8757 179.781 38.8704 178.091 37.1818C176.402 35.4913 174.397 34.1503 172.19 33.2353C169.983 32.3203 167.617 31.8493 165.227 31.8493C162.838 31.8493 160.472 32.3203 158.265 33.2353C156.057 34.1503 154.052 35.4913 152.364 37.1818L151.818 37.7273C149.676 39.8231 146.954 41.229 144.005 41.7637C141.056 42.2984 138.015 41.9374 135.273 40.7273C132.584 39.5749 130.291 37.6614 128.676 35.2224C127.06 32.7834 126.193 29.9253 126.182 27V26.1818C126.182 21.3597 124.266 16.7351 120.856 13.3253C117.447 9.91558 112.822 8 108 8C103.178 8 98.5533 9.91558 95.1435 13.3253C91.7338 16.7351 89.8182 21.3597 89.8182 26.1818V27.7273C89.8065 30.6526 88.9397 33.5107 87.3245 35.9497C85.7092 38.3887 83.4161 40.3022 80.7273 41.4545H80C77.258 42.6647 74.2164 43.0257 71.2674 42.4909C68.3183 41.9562 65.5971 40.5503 63.4545 38.4545L62.9091 37.9091C61.2205 36.2186 59.2152 34.8775 57.008 33.9626C54.8008 33.0476 52.4348 32.5766 50.0455 32.5766C47.6561 32.5766 45.2901 33.0476 43.0829 33.9626C40.8757 34.8775 38.8704 36.2186 37.1818 37.9091C35.4913 39.5977 34.1503 41.6029 33.2353 43.8102C32.3203 46.0174 31.8493 48.3834 31.8493 50.7727C31.8493 53.1621 32.3203 55.528 33.2353 57.7353C34.1503 59.9425 35.4913 61.9478 37.1818 63.6364L37.7273 64.1818C39.8231 66.3244 41.229 69.0456 41.7637 71.9947C42.2984 74.9437 41.9374 77.9853 40.7273 80.7273C39.6883 83.5521 37.8236 85.9991 35.3754 87.7501C32.9273 89.5011 30.009 90.4751 27 90.5454H26.1818C21.3597 90.5454 16.7351 92.461 13.3253 95.8708C9.91558 99.2805 8 103.905 8 108.727C8 113.549 9.91558 118.174 13.3253 121.584C16.7351 124.994 21.3597 126.909 26.1818 126.909H27.7273C30.6526 126.921 33.5107 127.788 35.9497 129.403C38.3887 131.018 40.3022 133.311 41.4545 136C42.6647 138.742 43.0257 141.784 42.4909 144.733C41.9562 147.682 40.5503 150.403 38.4545 152.545L37.9091 153.091C36.2186 154.78 34.8775 156.785 33.9625 158.992C33.0476 161.199 32.5766 163.565 32.5766 165.955C32.5766 168.344 33.0476 170.71 33.9625 172.917C34.8775 175.124 36.2186 177.13 37.9091 178.818C39.5977 180.509 41.6029 181.85 43.8102 182.765C46.0174 183.68 48.3834 184.151 50.7727 184.151C53.1621 184.151 55.528 183.68 57.7353 182.765C59.9425 181.85 61.9478 180.509 63.6364 178.818L64.1818 178.273C66.3243 176.177 69.0456 174.771 71.9946 174.236C74.9437 173.702 77.9853 174.063 80.7273 175.273C83.5521 176.312 85.9991 178.176 87.7501 180.625C89.5011 183.073 90.4751 185.991 90.5454 189V189.818C90.5454 194.64 92.461 199.265 95.8708 202.675C99.2805 206.084 103.905 208 108.727 208C113.549 208 118.174 206.084 121.584 202.675C124.993 199.265 126.909 194.64 126.909 189.818V188.273C126.921 185.347 127.788 182.489 129.403 180.05C131.018 177.611 133.311 175.698 136 174.545C138.742 173.335 141.784 172.974 144.733 173.509C147.682 174.044 150.403 175.45 152.545 177.545L153.091 178.091C154.779 179.781 156.785 181.122 158.992 182.037C161.199 182.952 163.565 183.423 165.955 183.423C168.344 183.423 170.71 182.952 172.917 182.037C175.124 181.122 177.13 179.781 178.818 178.091C180.509 176.402 181.85 174.397 182.765 172.19C183.68 169.983 184.151 167.617 184.151 165.227C184.151 162.838 183.68 160.472 182.765 158.265C181.85 156.057 180.509 154.052 178.818 152.364L178.273 151.818C176.177 149.676 174.771 146.954 174.236 144.005ZM81.2973 106.874C81.2973 92.7486 92.7486 81.2973 106.874 81.2973C121 81.2973 132.452 92.7486 132.452 106.874C132.452 121 121 132.452 106.874 132.452C92.7486 132.452 81.2973 121 81.2973 106.874Z" stroke="#545454" stroke-width="15" stroke-linecap="round" stroke-linejoin="round"/>
            </g>
                <defs>
                <filter id="filter0_i_102_203" x="0.5" y="0.5" width="215" height="219" filterUnits="userSpaceOnUse" color-interpolation-filters="sRGB">
                <feFlood flood-opacity="0" result="BackgroundImageFix"/>
                <feBlend mode="normal" in="SourceGraphic" in2="BackgroundImageFix" result="shape"/>
                <feColorMatrix in="SourceAlpha" type="matrix" values="0 0 0 0 0 0 0 0 0 0 0 0 0 0 0 0 0 0 127 0" result="hardAlpha"/>
                <feOffset dy="4"/>
                <feGaussianBlur stdDeviation="2"/>
                <feComposite in2="hardAlpha" operator="arithmetic" k2="-1" k3="1"/>
                <feColorMatrix type="matrix" values="0 0 0 0 0 0 0 0 0 0 0 0 0 0 0 0 0 0 0.25 0"/>
                <feBlend mode="normal" in2="shape" result="effect1_innerShadow_102_203"/>
                </filter>
                </defs>
             </g>
        </symbol>
    </defs>
</svg>
